<svg width="32" height="32" viewBox="0 0 32 32" fill="none" xmlns="http://www.w3.org/2000/svg">
<path d="M13.72 5.14694L2.42666 24.0003C2.19382 24.4035 2.07062 24.8607 2.06932 25.3263C2.06801 25.7919 2.18865 26.2498 2.41923 26.6543C2.64981 27.0588 2.9823 27.3959 3.38361 27.6321C3.78492 27.8682 4.24106 27.9952 4.70666 28.0003H27.2933C27.7589 27.9952 28.2151 27.8682 28.6164 27.6321C29.0177 27.3959 29.3502 27.0588 29.5808 26.6543C29.8113 26.2498 29.932 25.7919 29.9307 25.3263C29.9294 24.8607 29.8062 24.4035 29.5733 24.0003L18.28 5.14694C18.0423 4.75508 17.7076 4.4311 17.3083 4.20625C16.9089 3.9814 16.4583 3.86328 16 3.86328C15.5417 3.86328 15.0911 3.9814 14.6917 4.20625C14.2924 4.4311 13.9577 4.75508 13.72 5.14694V5.14694Z" stroke="white" stroke-width="2" stroke-linecap="round" stroke-linejoin="round"/>
<path d="M16 12V17.3333" stroke="white" stroke-width="2" stroke-linecap="square" stroke-linejoin="round"/>
<path d="M16 22.666H16.0133" stroke="white" stroke-width="2" stroke-linecap="round" stroke-linejoin="round"/>
</svg>
